<svg width="230" height="48" viewBox="0 0 230 48" fill="none" xmlns="http://www.w3.org/2000/svg">
<path d="M23.9167 48C37.1255 48 47.8333 37.2921 47.8333 24.0833C47.8333 10.8745 37.1255 0.166656 23.9167 0.166656C10.7079 0.166656 0 10.8745 0 24.0833C0 37.2921 10.7079 48 23.9167 48Z" fill="white"/>
<path d="M114.8 48C128.009 48 138.717 37.2921 138.717 24.0833C138.717 10.8745 128.009 0.166656 114.8 0.166656C101.591 0.166656 90.8834 10.8745 90.8834 24.0833C90.8834 37.2921 101.591 48 114.8 48Z" fill="white"/>
<path d="M205.683 48C218.892 48 229.6 37.2921 229.6 24.0833C229.6 10.8745 218.892 0.166656 205.683 0.166656C192.475 0.166656 181.767 10.8745 181.767 24.0833C181.767 37.2921 192.475 48 205.683 48Z" fill="white"/>
</svg>
