<svg width="177" height="163" viewBox="0 0 177 163" fill="none" xmlns="http://www.w3.org/2000/svg">
<path d="M53.4502 0.695451C36.6986 2.2291 25.7008 7.17818 15.9168 16.6636H15.8935C-4.14781 37.0645 -4.15329 69.4886 15.1208 90.302C15.358 90.9074 15.7166 91.4565 16.1744 91.9175H16.1978L85.0128 160.896C86.8634 162.755 89.869 162.766 91.7328 160.92L160.548 92.2225C160.601 92.1746 160.659 92.1266 160.712 92.0822C160.736 92.0583 160.76 92.0343 160.782 92.0103C160.899 91.9024 161.018 91.7909 161.134 91.6818C161.182 91.6339 161.228 91.5859 161.274 91.5416C181.764 70.4883 181.383 36.6935 160.431 16.1003C140.583 -3.39756 109.519 -3.63097 88.666 14.0867C78.5077 5.34783 66.0712 0.55339 53.4507 0.693651L53.4502 0.695451ZM53.5673 10.1548C64.7744 10.0302 76.0185 14.201 84.7085 22.6582C84.8067 22.7661 84.9157 22.856 85.0129 22.9627C85.0662 23.0226 85.1208 23.0706 85.1768 23.1269C85.5148 23.4638 85.9016 23.7479 86.3241 23.9697C86.6081 24.1159 86.9062 24.2334 87.2138 24.3209C87.4435 24.3929 87.6783 24.448 87.9163 24.4852C87.9941 24.4951 88.0722 24.4972 88.1504 24.5091C88.3064 24.5168 88.4627 24.5168 88.6187 24.5091C88.7751 24.5089 88.9314 24.5009 89.087 24.4852C89.2442 24.4732 89.4005 24.4492 89.5553 24.4132C89.6339 24.3893 89.712 24.3653 89.7894 24.3413C89.868 24.3173 89.9461 24.2934 90.0235 24.2694C90.0944 24.2454 90.1646 24.2214 90.2343 24.1975C90.3132 24.1735 90.3912 24.1375 90.4684 24.1015C90.5394 24.0656 90.6097 24.0416 90.6791 24.0056C90.7504 23.9697 90.8207 23.9217 90.8899 23.8858L90.9601 23.8378C91.0074 23.8138 91.0542 23.7899 91.1006 23.7659C91.1163 23.7539 91.132 23.7299 91.1475 23.7179C91.1553 23.71 91.1631 23.7059 91.1709 23.694C91.4395 23.5249 91.6905 23.3283 91.9201 23.1089C109.026 6.0423 136.544 5.94148 153.781 22.8752C171.069 39.8672 171.374 67.4719 154.483 84.8531C154.476 84.8613 154.468 84.8651 154.459 84.8771C154.35 84.985 154.242 85.0809 154.132 85.1816C154.084 85.2296 154.037 85.2895 153.991 85.3458C153.894 85.4298 153.8 85.5293 153.71 85.6264L88.3839 150.812L23.1982 85.4859C23.109 85.378 23.0152 85.2785 22.9172 85.1814C5.86678 68.0915 5.75033 40.6076 22.6362 23.3673C22.652 23.3553 22.6673 23.3313 22.6831 23.3193H22.7065C31.2064 14.6712 42.3596 10.2615 53.5667 10.137L53.5673 10.1548Z" fill="white"/>
</svg>
