<svg width="192" height="192" viewBox="0 0 192 192" fill="none" xmlns="http://www.w3.org/2000/svg">
<path d="M96 0.0800209C43.0768 0.0800209 0.0799866 43.0768 0.0799866 96C0.0799866 148.923 43.0768 191.92 96 191.92C148.923 191.92 191.92 148.923 191.92 96C191.92 43.0768 148.923 0.0800209 96 0.0800209ZM96 8.80002C144.21 8.80002 183.2 47.7895 183.2 96C183.2 144.211 144.21 183.2 96 183.2C47.7895 183.2 8.79999 144.211 8.79999 96C8.79999 47.7895 47.7895 8.80002 96 8.80002ZM63.3 54.58V137.42L137.42 96L63.3 54.58V54.58Z" fill="white"/>
</svg>
